<svg xmlns="http://www.w3.org/2000/svg" xmlns:xlink="http://www.w3.org/1999/xlink" width="320" height="335" viewBox="0 0 320 335">
  <defs>
    <clipPath id="clip-path">
      <rect id="Rectangle_144" data-name="Rectangle 144" width="181.522" height="204.475" transform="translate(0 0)" fill="#9298a4"/>
    </clipPath>
    <clipPath id="clip-Artboard_6">
      <rect width="320" height="335"/>
    </clipPath>
  </defs>
  <g id="Artboard_6" data-name="Artboard – 6" clip-path="url(#clip-Artboard_6)">
    <g id="Group_101" data-name="Group 101" transform="matrix(0.848, 0.53, -0.53, 0.848, 141.061, 41.753)">
      <g id="Group_57" data-name="Group 57" transform="translate(0 -0.001)" clip-path="url(#clip-path)">
        <path id="Path_62" data-name="Path 62" d="M.017,102.015c0-23.622-.046-47.244.014-70.866C.081,11.434,11.57.021,31.287.012q59.379-.028,118.758,0C169.856.019,181.407,11.36,181.445,31c.064,32.707.142,65.415-.014,98.122-.209,43.655-32.256,75.3-76.053,75.338q-36.96.029-73.921,0c-20.02-.014-31.4-11.421-31.431-31.579q-.061-35.433-.009-70.866m11.31.163q0,36.009.01,72.018c.017,12.115,6.464,18.941,18.475,19.014q38.139.23,76.281.005c11.681-.065,18.272-6.629,19-18.262.959-15.381,11.576-26.064,27.079-27.246,12.4-.946,17.968-6.919,17.977-19.452q.035-49.021,0-98.041c-.011-12.076-6.5-18.92-18.534-18.956q-60.843-.179-121.687,0c-12.1.035-18.566,6.817-18.584,18.9q-.054,36.009-.011,72.018m152.821,55.465c-29.675,1.9-27.327,11.1-28.862,29.122a62.471,62.471,0,0,0,28.862-29.122" transform="translate(0 0.002)" fill="#9298a4"/>
        <path id="Path_63" data-name="Path 63" d="M337.342,376.565c-12.518,0-25.036-.062-37.553.036-3.957.031-7.1-1.064-7.066-5.456.03-4.283,3.145-5.653,7.069-5.65q38.159.026,76.318,0c3.924,0,7.037,1.37,7.066,5.653.029,4.392-3.113,5.482-7.069,5.452-12.921-.1-25.843-.036-38.764-.036" transform="translate(-247.209 -308.667)" fill="#9298a4"/>
        <path id="Path_64" data-name="Path 64" d="M337.382,595.663c-12.309,0-24.618-.05-36.926.029-4,.026-7.717-.576-7.665-5.447.05-4.708,3.685-5.648,7.7-5.645q37.532.032,75.064,0c4.024,0,7.643.968,7.664,5.68.023,4.878-3.717,5.435-7.7,5.411-12.712-.076-25.425-.028-38.137-.028" transform="translate(-247.266 -493.705)" fill="#9298a4"/>
        <path id="Path_65" data-name="Path 65" d="M326.415,814.7c-8.868,0-17.736-.034-26.6.014-3.871.021-7.1-1.082-7.094-5.487.009-4.358,3.3-5.641,7.1-5.649q26.6-.055,53.207,0c3.967.009,7.518,1.1,7.357,5.956-.152,4.587-3.671,5.175-7.359,5.172q-13.3-.012-26.6,0" transform="translate(-247.205 -678.607)" fill="#9298a4"/>
      </g>
    </g>
  </g>
</svg>
